PathFileType	4	(X/Y/Z)	E:\Qualisys_Data\Carbon_Farble_Plate\Data\Amateur_Runner\S1\T3\S1T3V13_c3d.trc
DataRate	CameraRate	NumFrames	NumMarkers	Units	OrigDataRate	OrigDataStartFrame	OrigNumFrames
200.000000	200.000000	4	39	mm	200.000000	119	318
Frame#	Time	LSHO			RSHO			LICST			RICST			LASIS			LHEEL			RASIS			LTROC			RTROC			SACR			LTH1			LSK4			LTH2			LTH3			RHM5			LSK2			LTH4			RTH1			LTOE			RTH2			RTH3			RTH4			LLEP			RLEP			LSK1			LSK3			RSK1			LHM5			RSK2			LFT1			RSK3			RSK4			LLME			RLME			RTOE			RHEEL			RFT1			RFT2			LFT2			
		X1	Y1	Z1	X2	Y2	Z2	X3	Y3	Z3	X4	Y4	Z4	X5	Y5	Z5	X6	Y6	Z6	X7	Y7	Z7	X8	Y8	Z8	X9	Y9	Z9	X10	Y10	Z10	X11	Y11	Z11	X12	Y12	Z12	X13	Y13	Z13	X14	Y14	Z14	X15	Y15	Z15	X16	Y16	Z16	X17	Y17	Z17	X18	Y18	Z18	X19	Y19	Z19	X20	Y20	Z20	X21	Y21	Z21	X22	Y22	Z22	X23	Y23	Z23	X24	Y24	Z24	X25	Y25	Z25	X26	Y26	Z26	X27	Y27	Z27	X28	Y28	Z28	X29	Y29	Z29	X30	Y30	Z30	X31	Y31	Z31	X32	Y32	Z32	X33	Y33	Z33	X34	Y34	Z34	X35	Y35	Z35	X36	Y36	Z36	X37	Y37	Z37	X38	Y38	Z38	X39	Y39	Z39	

120	0.595	-329.1772766113281	1434.528930664062	-624.758056640625	-327.0925598144531	1456.40283203125	-291.4235229492188	-388.1762084960938	997.7549438476562	-565.54931640625	-378.8988647460938	1003.209899902344	-263.7764587402344	-341.3421630859375	961.4775390625	-542.5482177734375	-617.5830688476562	101.572624206543	-442.2476501464844	-336.2709045410156	958.1361083984376	-278.368408203125	-449.2695007324219	877.74658203125	-583.9376220703125	-442.5057678222656	859.485595703125	-248.6106567382812	-501.1255798339844	1016.295104980469	-406.6987915039062	-305.2183532714844	732.9392700195312	-567.7373657226562	-529.3463745117188	243.2475738525391	-484.8348388671875	-386.5576171875	717.3206787109375	-588.2324829101562	-292.99755859375	630.6541748046875	-550.6491088867188	-592.8403930664062	189.1172332763672	-248.3963470458984	-474.5616149902344	319.9813232421875	-528.5789184570312	-377.8170776367188	619.7572021484375	-563.407470703125	-277.3452453613281	767.6383056640625	-262.3687438964844	-368.6651306152344	60.60152435302734	-459.95654296875	-348.7730407714844	739.80615234375	-236.9535064697266	-240.6115570068359	672.7146606445312	-263.40625	-316.0668334960938	645.1245727539062	-246.5157165527344	-327.2404174804688	475.6877136230469	-522.566650390625	-243.2161254882812	499.6986083984375	-282.929443359375	-405.7166442871094	275.2547302246094	-510.1666870117188	-465.9448547363281	194.9050140380859	-499.3744812011719	-394.3977355957031	406.8674621582031	-262.7162780761719	-442.7771911621094	58.16807556152344	-520.362548828125	-429.39208984375	477.5757141113281	-283.2654418945312	-612.9287109375	69.159912109375	-416.19775390625	-482.9223937988281	359.9039611816406	-273.8126525878906	-516.6098022460938	428.9198608398438	-300.53564453125	-554.1542358398438	118.1559448242188	-490.1788940429688	-611.431396484375	332.7306823730469	-273.111328125	-555.51806640625	143.6457061767578	-315.8866577148438	-681.1039428710938	362.2449035644531	-319.8111877441406	-699.6546020507812	336.963134765625	-347.2396545410156	-701.0523071289062	348.8179321289062	-296.4012756347656	-619.9109497070312	69.26176452636719	-466.9386596679688
121	0.6	-311.3843383789062	1437.5791015625	-623.9910888671875	-313.7202453613281	1458.42578125	-290.6057434082031	-372.9735107421875	999.3972778320312	-566.5430297851562	-363.6370849609375	1005.961364746094	-264.4355163574219	-324.038818359375	962.599853515625	-541.9273071289062	-617.0548095703125	102.9840240478516	-442.1565551757812	-321.1828002929688	960.419189453125	-277.6429443359375	-433.2294006347656	879.8436889648438	-584.1798706054688	-426.9292907714844	862.096435546875	-248.8798065185547	-485.103759765625	1018.54150390625	-408.138671875	-292.396484375	733.0624389648438	-565.864501953125	-526.3840942382812	245.4363555908203	-484.5896606445312	-373.5205993652344	718.7653198242188	-587.646484375	-282.2098388671875	630.4362182617188	-548.5709838867188	-559.3568115234375	185.6240234375	-247.8609008789062	-470.616455078125	321.5546569824219	-528.4017333984375	-366.6900329589844	621.1340942382812	-562.8115234375	-260.0277404785156	772.982666015625	-262.6073608398438	-368.19140625	60.25778579711914	-460.0850219726562	-331.5351257324219	743.546875	-237.3046569824219	-221.5288238525391	679.0157470703125	-263.5535888671875	-296.3526916503906	649.69921875	-247.1916656494141	-320.7613220214844	475.1766967773438	-521.0989990234375	-219.8284606933594	506.0281982421875	-282.8214721679688	-402.4864501953125	276.1993103027344	-509.2926330566406	-463.3388061523438	196.078125	-498.6546630859375	-368.51171875	409.2007446289062	-263.0564575195312	-442.51513671875	58.52789688110352	-520.272705078125	-405.792236328125	478.4728393554688	-283.2218933105469	-614.2135009765625	72.42717742919922	-416.544189453125	-455.7302551269531	358.954833984375	-274.1018676757812	-491.4999694824219	427.3379821777344	-300.7094116210938	-552.5850219726562	120.4207305908203	-490.2955322265625	-583.2156982421875	328.0466613769531	-273.1588439941406	-519.844970703125	141.4598541259766	-315.8001098632812	-654.4113159179688	354.9219055175781	-320.0767822265625	-672.320556640625	328.9190368652344	-347.886962890625	-673.6103515625	340.2862548828125	-296.6485900878906	-619.6318359375	70.79258728027344	-466.7547302246094
122	0.605	-293.4523315429688	1440.657958984375	-622.9400024414062	-300.3459167480469	1460.940673828125	-289.8778381347656	-356.1004333496094	1001.750549316406	-567.0568237304688	-347.9471435546875	1009.0751953125	-265.0612182617188	-308.8684692382812	961.7760009765624	-545.6611938476562	-615.7827758789062	104.5118942260742	-442.2253112792969	-305.580322265625	963.80908203125	-278.3999633789062	-417.5969848632812	881.9007568359375	-584.5698852539062	-410.8934020996094	865.4789428710938	-248.8861236572266	-468.2545776367188	1021.333190917969	-409.3779602050781	-279.2332153320312	733.152099609375	-563.7818603515625	-523.2968139648438	247.7080535888672	-484.6221008300781	-360.3482971191406	720.5423583984375	-587.365966796875	-271.2136840820312	630.64501953125	-546.0542602539062	-525.5468139648438	182.0794219970703	-247.678466796875	-466.6203002929688	323.6472778320312	-527.840576171875	-355.5396423339844	622.8624267578125	-562.6642456054688	-243.2095184326172	778.8488159179688	-262.3953247070312	-367.858154296875	59.98316955566406	-459.8282165527344	-313.8776245117188	747.6155395507812	-237.2171325683594	-202.4893188476562	685.470703125	-263.4286499023438	-277.1734313964844	654.6996459960938	-248.0076446533203	-314.7651672363281	475.3287963867188	-519.5853271484375	-197.1741485595703	512.233154296875	-283.0523681640625	-398.7651672363281	277.2579040527344	-508.3578491210938	-460.9195556640625	198.0888214111328	-498.5529479980469	-343.2555541992188	410.8871765136719	-263.3837280273438	-441.6975402832031	58.77240371704102	-519.8783569335938	-382.6669616699219	479.3928527832031	-283.5685729980469	-612.0570068359375	72.61139678955078	-415.9434814453125	-428.394775390625	358.4475402832031	-273.7742309570312	-466.6878967285156	425.34814453125	-300.7044677734375	-552.09814453125	122.8798599243164	-489.9753723144531	-555.1146850585938	323.2589721679688	-273.1039733886719	-483.8319702148438	139.5607757568359	-315.1359558105469	-627.8536376953125	346.0635375976562	-320.9078063964844	-643.9530029296875	319.6587219238281	-347.8736267089844	-646.3256225585938	331.7487182617188	-296.8883056640625	-619.0667114257812	72.44409942626953	-466.2777404785156
123	0.61	-275.8915100097656	1444.2373046875	-621.8890380859375	-287.0907897949219	1463.807861328125	-288.6315307617188	-338.8367919921875	1002.92041015625	-568.21240234375	-332.0602111816406	1012.560852050781	-265.5745849609375	-291.5869445800781	964.4642944335938	-544.9599609375	-615.119873046875	106.8556900024414	-441.4914855957031	-288.1905212402344	967.8645629882812	-280.5981750488281	-402.176513671875	884.1507568359375	-584.5109252929688	-394.6849670410156	869.1353759765625	-248.9087524414062	-451.7901306152344	1023.990966796875	-410.839111328125	-265.9983825683594	733.4644775390625	-562.0532836914062	-520.72509765625	250.3884582519531	-484.30126953125	-347.3443298339844	722.4354858398438	-586.7952880859375	-261.0401000976562	630.4805297851562	-544.360107421875	-491.0869140625	178.2995147705078	-247.7946624755859	-462.9649353027344	325.9330139160156	-527.3065185546875	-345.1409912109375	624.6880493164062	-562.0503540039062	-226.0468292236328	784.6032104492188	-262.45166015625	-367.4109497070312	59.76482009887695	-459.6846618652344	-296.4063110351562	752.0850830078125	-237.5553283691406	-183.5123138427734	691.944580078125	-263.4102478027344	-257.6943969726562	659.7725219726562	-247.9234161376953	-309.0888061523438	475.4198913574219	-518.5507202148438	-175.0343017578125	519.10888671875	-283.1126403808594	-395.56884765625	278.9524841308594	-507.8421325683594	-458.3913879394531	199.6824035644531	-497.6598510742188	-318.2389526367188	412.9983520507812	-263.6015014648438	-441.2353820800781	59.07393264770508	-519.6937866210938	-359.9175415039062	480.2327270507812	-283.5078735351562	-610.8258666992188	74.67987060546875	-415.3913269042969	-401.4496459960938	357.1377868652344	-274.0507507324219	-441.7497253417969	422.7684631347656	-301.0282592773438	-549.9609985351562	125.6898574829102	-489.93359375	-526.9666748046875	318.0564270019531	-273.1174926757812	-447.64404296875	137.6818084716797	-314.5730895996094	-600.5028076171875	337.45458984375	-321.0886840820312	-615.2575073242188	310.1308288574219	-348.6489562988281	-618.9004516601562	322.3022155761719	-297.7359008789062	-617.991943359375	75.77259826660156	-466.2820434570312
